<svg version="1.1" xmlns="http://www.w3.org/2000/svg" width="0" height="0" >
	<rect id="outer-rect" width="60" height="90" rx="10" ry="10" x="1" y="1"
    	style="fill:#ffffff;fill-opacity:1;fill-rule:evenodd;stroke:#000000;stroke-width:0.5;stroke-miterlimit:4;stroke-dasharray:none" />
	<rect id="inner-rect" width="50" height="80" rx="5" ry="5" x="6" y="6"
    	style="fill-opacity:1;fill-rule:evenodd;stroke:none" />
	<path id="inner-curve"
    	d="m 46,21 c -22.09139,0 -40,17.90861 -40,40 0,5.52285 4.47715,10 10,10 22.09139,0 40,-17.90861 40,-40 0,-5.52285 -4.47715,-10 -10,-10 z"
    	style="fill:#ffffff;fill-opacity:1;fill-rule:evenodd;stroke:none" />

	<!-- ZERO -->
    <path d="m 31,31 c -5.52285,0 -10,4.47715 -10,10 l 0,10 c 0,5.52285 4.47715,10 10,10 5.52285,0 10,-4.47715 10,-10 l 0,-10 c 0,-5.52285 -4.47715,-10 -10,-10 z m 0,5 c 2.76142,0 5,2.23858 5,5 l 0,10 c 0,2.76142 -2.23858,5 -5,5 -2.76142,0 -5,-2.23858 -5,-5 l 0,-10 c 0,-2.76142 2.23858,-5 5,-5 z"
            id="inner-symbol-0"
            style="fill-opacity:1;fill-rule:evenodd;stroke:none" />
	<g id="outer-symbol-0" style="fill:#ffffff;fill-opacity:1;fill-rule:evenodd;stroke:none">
         <path d="m 13.5,8.5 c -2.76143,0 -5,2.23857 -5,5 l 0,5 c 0,2.76143 2.23857,5 5,5 2.76142,0 5,-2.23857 5,-5 l 0,-5 c 0,-2.76143 -2.23858,-5 -5,-5 z m 0,2.5 c 1.38071,0 2.5,1.11929 2.5,2.5 l 0,5 c 0,1.38071 -1.11929,2.5 -2.5,2.5 -1.38071,0 -2.5,-1.11929 -2.5,-2.5 l 0,-5 c 0,-1.38071 1.11929,-2.5 2.5,-2.5 z" />
         <path d="m 48.5,68.5 c -2.76143,0 -5,2.23857 -5,5 l 0,5 c 0,2.76143 2.23857,5 5,5 2.76142,0 5,-2.23857 5,-5 l 0,-5 c 0,-2.76143 -2.23858,-5 -5,-5 z m 0,2.5 c 1.38071,0 2.5,1.11929 2.5,2.5 l 0,5 c 0,1.38071 -1.11929,2.5 -2.5,2.5 -1.38071,0 -2.5,-1.11929 -2.5,-2.5 l 0,-5 c 0,-1.38071 1.11929,-2.5 2.5,-2.5 z" />
	</g>

	<!-- ONE -->
	<path d="m 29,31 -5,5 0,6 5,-5 0,24 5,0 0,-30 z"
         id="inner-symbol-1"
         style="fill-opacity:1;fill-rule:evenodd;stroke:none" />
	<g  id="outer-symbol-1" style="fill:#ffffff;fill-opacity:1;fill-rule:evenodd;stroke:none">
    	<path d="m 11,8 -2.5,2.5 0,3 2.5,-2.5 0,12 2.5,0 0,-15 z" />
    	<path d="m 51,83 2.5,-2.5 0,-3 -2.5,2.5 0,-12 -2.5,0 0,15 z" />
    </g>

	<!-- TWO -->
	<path d="m 30,31 c -5.54,0 -10,4.45999 -10,9.99999 l 0,1 5,0 0,-1 c 0,-2.77 2.23,-5 5,-5 2.77,0 5,2.23 5,5 0,1.1275 -0.93551,3.34015 -1.91245,4.10902 -5.30481,4.17494 -5.24881,3.48544 -13.08755,8.89098 l 0,7 10,0 10,0 0,-5 0,-2 -5,0 0,2 -5,0 -4,0 c 6.19007,-4.35874 6.6427,-4.25311 11.49308,-8.59375 1.55408,-1.39076 2.50692,-4.15105 2.50692,-6.40625 0,-5.54 -4.46,-9.99999 -10,-9.99999 z"
		id="inner-symbol-2"
		style="fill-opacity:1;stroke:none" />
	<g id="outer-symbol-2" style="fill:#ffffff;fill-opacity:1;stroke:none">
		<path d="m 13.5,8.5 c -2.77,0 -5,2.23 -5,5 l 0,0.5 2.5,0 0,-0.5 c 0,-1.385 1.115,-2.5 2.5,-2.5 1.385,0 2.5,1.115 2.5,2.5 0,0.56375 -0.46776,1.67007 -0.95623,2.05451 -2.6524,2.08747 -2.6244,1.74272 -6.54377,4.44549 l 0,3.5 5,0 5,0 0,-2.5 0,-1 -2.5,0 0,1 -2.5,0 -2,0 c 3.09503,-2.17937 3.32135,-2.12655 5.74654,-4.29687 0.77704,-0.69538 1.25346,-2.07553 1.25346,-3.20313 0,-2.77 -2.23,-5 -5,-5 z" />
		<path d="m 48.5,83.5 c 2.77,0 5,-2.23 5,-5 l 0,-0.5 -2.5,0 0,0.5 c 0,1.385 -1.115,2.5 -2.5,2.5 -1.385,0 -2.5,-1.115 -2.5,-2.5 0,-0.56375 0.46776,-1.67007 0.95623,-2.05451 2.6524,-2.08747 2.6244,-1.74272 6.54377,-4.44549 l 0,-3.5 -5,0 -5,0 0,2.5 0,1 2.5,0 0,-1 2.5,0 2,0 c -3.09503,2.17937 -3.32135,2.12655 -5.74654,4.29687 -0.77704,0.69538 -1.25346,2.07553 -1.25346,3.20313 0,2.77 2.23,5 5,5 z" />
	</g>

	<!-- THREE -->
	<path d="m 31,31 c -4.14214,0 -7.5,3.35786 -7.5,7.5 l 5,0 c 0,-1.38071 1.11929,-2.5 2.5,-2.5 1.38071,0 2.5,1.11929 2.5,2.5 0,1.38071 -1.11929,2.5 -2.5,2.5 l -3,0 0,5 3,0 c 2.77,0 5,2.23 5,5 0,2.77 -2.23,5 -5,5 -2.77,0 -5,-2.23 -5,-5 l -5,0 c 0,5.54 4.46,10 10,10 5.54,0 10,-4.46 10,-10 0,-3.29394 -1.58832,-6.18011 -4.03125,-8 0.95194,-1.25738 1.53125,-2.80132 1.53125,-4.5 0,-4.14214 -3.35786,-7.5 -7.5,-7.5 z"
		id="inner-symbol-3"
		style="fill-opacity:1;stroke:none" />
	<g id="outer-symbol-3" style="fill:#ffffff;fill-opacity:1;stroke:none">
		<path d="m 13.5,8.5 c -2.07107,0 -3.75,1.67893 -3.75,3.75 l 2.5,0 c 0,-0.69036 0.55965,-1.25 1.25,-1.25 0.69035,0 1.25,0.55964 1.25,1.25 0,0.69035 -0.55965,1.25 -1.25,1.25 l -1.5,0 0,2.49999 1.5,0 c 1.385,0 2.5,1.115 2.5,2.50001 0,1.385 -1.115,2.5 -2.5,2.5 -1.385,0 -2.5,-1.115 -2.5,-2.5 l -2.5,0 c 0,2.77 2.23,5 5,5 2.77,0 5,-2.23 5,-5 0,-1.64697 -0.79416,-3.09006 -2.01563,-4 0.47598,-0.6287 0.76563,-1.40066 0.76563,-2.25 0,-2.07107 -1.67893,-3.75 -3.75,-3.75 z" />
		<path d="m 48.5,83.5 c 2.07107,0 3.75,-1.67893 3.75,-3.75 l -2.5,0 c 0,0.69036 -0.55965,1.25 -1.25,1.25 -0.69035,0 -1.25,-0.55964 -1.25,-1.25 0,-0.69035 0.55965,-1.25 1.25,-1.25 l 1.5,0 0,-2.49999 -1.5,0 c -1.385,0 -2.5,-1.115 -2.5,-2.50001 0,-1.385 1.115,-2.5 2.5,-2.5 1.385,0 2.5,1.115 2.5,2.5 l 2.5,0 c 0,-2.77 -2.23,-5 -5,-5 -2.77,0 -5,2.23 -5,5 0,1.64697 0.79416,3.09006 2.01563,4 -0.47598,0.6287 -0.76563,1.40066 -0.76563,2.25 0,2.07107 1.67893,3.75 3.75,3.75 z" />
	</g>

	<!-- FOUR -->
	<path d="M 29.8,31 L 20,51 l 0,5 12,0 0,5.00002 5,0 0,-5.00002 3,0 0,-5 -3,0 0,-9.99997 -5,0 0,9.99997 -6.8,0 9.8,-19.99998 z"
       	id="inner-symbol-4"
       	style="fill-opacity:1;stroke:none" />
       <g id="outer-symbol-4" style="fill:#ffffff;fill-opacity:1;stroke:none">
		<path d="m 13.3,8.5 -4.9,10 0,2.50001 6,0 0,2.50001 2.5,0 0,-2.50001 1.5,0 0,-2.50001 -1.5,0 0,-4.99999 -2.5,0 0,4.99999 -3.4,0 4.9,-10 z" />
		<path d="m 48.5,83.5 4.9,-10 0,-2.50001 -6,0 0,-2.50001 -2.5,0 0,2.50001 -1.5,0 0,2.50001 1.5,0 0,4.99999 2.5,0 0,-4.99999 3.4,0 -4.9,10 z" />
       </g>

       <!-- FIVE -->
          <path d="m 22,31 0,10 0,5 10,0 c 2.77,0 5,2.23 5,5 0,2.77 -2.23,5 -5,5 -2.77,0 -5,-2.23 -5,-5 l -5,0 c 0,5.54 4.46,10 10,10 5.54,0 10,-4.46 10,-10 0,-5.54 -4.46,-10 -10,-10 l -5,0 0,-5 5,0 9,0 0,-5 -9,0 -5,0 z"
          	id="inner-symbol-5"
          	style="fill-opacity:1;stroke:none" />
  		<g id="outer-symbol-5" style="fill:#ffffff;fill-opacity:1;stroke:none">
  		    <path d="m 8.5,8.5 0,5 0,2.5 5,0 c 1.385,0 2.5,1.115 2.5,2.5 0,1.385 -1.115,2.5 -2.5,2.5 -1.385,0 -2.5,-1.115 -2.5,-2.5 l -2.5,0 c 0,2.77 2.23,5 5,5 2.77,0 5,-2.23 5,-5 0,-2.77 -2.23,-5 -5,-5 l -2.5,0 0,-2.5 2.5,0 4.5,0 0,-2.5 -4.5,0 -2.5,0 z" />
  	     	<path d="m 53.5,83.5 0,-5 0,-2.5 -5,0 c -1.385,0 -2.5,-1.115 -2.5,-2.5 0,-1.385 1.115,-2.5 2.5,-2.5 1.385,0 2.5,1.115 2.5,2.5 l 2.5,0 c 0,-2.77 -2.23,-5 -5,-5 -2.77,0 -5,2.23 -5,5 0,2.77 2.23,5 5,5 l 2.5,0 0,2.5 -2.5,0 -4.5,0 0,2.5 4.5,0 2.5,0 z" />
  		</g>
  
  		<!-- SIX -->
  		<path d="m 31,31 c -5.52285,0 -10,4.47715 -10,10 l 0,10 c 0,5.52285 4.47715,10 10,10 5.52285,0 10,-4.47715 10,-10 0,-5.52285 -4.47715,-10 -10,-10 -1.817,0 -3.53157,0.49674 -5,1.34375 l 0,-1.34375 c 0,-2.76142 2.23858,-5 5,-5 1.95426,0 3.6151,1.14704 4.4375,2.78125 l 4.5,-2.25 c -1.63927,-3.28436 -5.01726,-5.53125 -8.9375,-5.53125 z m 0,15 c 2.76142,0 5,2.23858 5,5 0,2.76142 -2.23858,5 -5,5 -2.76142,0 -5,-2.23858 -5,-5 0,-2.76142 2.23858,-5 5,-5 z m -5,16 0,2 10,0 0,-2 -10,0 z"
          	id="inner-symbol-6"
           	style="fill-opacity:1;fill-rule:evenodd;stroke:none" />
  		<g id="outer-symbol-6" style="fill:#ffffff;fill-opacity:1;fill-rule:evenodd;stroke:none">
        		<path d="m 13.5,8.5 c -2.76143,0 -5,2.23859 -5,5.00001 l 0,4.99998 c 0,2.76143 2.23857,5.00001 5,5.00001 2.76142,0 5,-2.23858 5,-5.00001 0,-2.76141 -2.23858,-4.99998 -5,-4.99998 -0.9085,0 -1.76579,0.24837 -2.5,0.67187 l 0,-0.67187 c 0,-1.38071 1.11929,-2.5 2.5,-2.5 0.97712,0 1.80755,0.57351 2.21874,1.39062 l 2.25,-1.125 c -0.81962,-1.64218 -2.50862,-2.76563 -4.46874,-2.76563 z m 0,7.5 c 1.3807,0 2.49999,1.11928 2.49999,2.49999 0,1.38071 -1.11929,2.50001 -2.49999,2.50001 -1.38071,0 -2.5,-1.1193 -2.5,-2.50001 0,-1.38071 1.11929,-2.49999 2.5,-2.49999 z" />
        		<path d="m 48.5,83.5 c 2.76143,0 5,-2.23859 5,-5.00001 l 0,-4.99998 c 0,-2.76143 -2.23857,-5.00001 -5,-5.00001 -2.76142,0 -5,2.23858 -5,5.00001 0,2.76141 2.23858,4.99998 5,4.99998 0.9085,0 1.76579,-0.24837 2.5,-0.67187 l 0,0.67187 c 0,1.38071 -1.11929,2.5 -2.5,2.5 -0.97712,0 -1.80755,-0.57351 -2.21874,-1.39062 l -2.25,1.125 c 0.81962,1.64218 2.50862,2.76563 4.46874,2.76563 z m 0,-7.5 c -1.3807,0 -2.49999,-1.11928 -2.49999,-2.49999 0,-1.38071 1.11929,-2.50001 2.49999,-2.50001 1.38071,0 2.5,1.1193 2.5,2.50001 0,1.38071 -1.11929,2.49999 -2.5,2.49999 z" />
          </g>
  
          <!-- SEVEN -->
          <path d="m 22.5,31 0,10 5,0 0,-5 10,0 -10,25 5,0 10,-25 0,-5 -15,0 -5,0 z"
          	id="inner-symbol-7"
          	style="fill-opacity:1;fill-rule:evenodd;stroke:none" />
  		<g id="outer-symbol-7" style="fill:#ffffff;fill-opacity:1;fill-rule:evenodd;stroke:none">
          	<path d="m 8.5,8.5 0,5 2.5,0 0,-2.5 5,0 -5,12.5 2.5,0 5,-12.5 0,-2.5 -7.5,0 -2.5,0 z" />
              <path d="m 53.5,83.5 0,-5 -2.5,0 0,2.5 -5,0 5,-12.5 -2.5,0 -5,12.5 0,2.5 7.5,0 2.5,0 z" />
          </g>
  
          <!-- EIGHT -->
          <path d="m 31,31 c -4.14214,0 -7.5,3.3578 -7.5,7.5 0,1.6987 0.57931,3.2426 1.53125,4.5 -2.44293,1.8199 -4.03125,4.706 -4.03125,8 0,5.54 4.46,10 10,10 5.54,0 10,-4.46 10,-10 0,-3.294 -1.58832,-6.1801 -4.03125,-8 0.95194,-1.2574 1.53125,-2.8013 1.53125,-4.5 0,-4.1422 -3.35786,-7.5 -7.5,-7.5 z m 0,5 c 1.38071,0 2.5,1.1193 2.5,2.5 0,1.3807 -1.11929,2.5 -2.5,2.5 -1.38071,0 -2.5,-1.1193 -2.5,-2.5 0,-1.3807 1.11929,-2.5 2.5,-2.5 z m -0.5,10 c 0.16849,-0.017 0.32687,0 0.5,0 2.77,0 5,2.23 5,5 0,2.77 -2.23,5 -5,5 -2.77,0 -5,-2.23 -5,-5 0,-2.5969 1.9726,-4.7449 4.5,-5 z"
  	    	id="inner-symbol-8"
              style="fill-opacity:1;stroke:none" />
          <g id="outer-symbol-8" style="fill:#ffffff;fill-opacity:1;stroke:none">
          	<path d="m 13.5,8.5 c -2.07107,0 -3.75,1.67889 -3.75,3.75 0,0.84935 0.28965,1.6213 0.76562,2.25 -1.22146,0.90994 -2.01562,2.353 -2.01562,4 0,2.77 2.23,5 5,5 2.77,0 5,-2.23 5,-5 0,-1.647 -0.79416,-3.09006 -2.01563,-4 0.47598,-0.6287 0.76563,-1.40065 0.76563,-2.25 0,-2.07111 -1.67893,-3.75 -3.75,-3.75 z m 0,2.5 c 0.69035,0 1.25,0.55965 1.25,1.25 0,0.69034 -0.55965,1.25 -1.25,1.25 -0.69035,0 -1.25,-0.55966 -1.25,-1.25 0,-0.69035 0.55965,-1.25 1.25,-1.25 z m -0.25,4.99999 c 0.0842,-0.009 0.16343,0 0.25,0 1.385,0 2.5,1.115 2.5,2.50001 0,1.385 -1.115,2.5 -2.5,2.5 -1.385,0 -2.5,-1.115 -2.5,-2.5 0,-1.29845 0.9863,-2.37245 2.25,-2.50001 z" />
              <path d="m 48.5,83.5 c -2.07107,0 -3.75,-1.67889 -3.75,-3.75 0,-0.84935 0.28965,-1.6213 0.76562,-2.25 -1.22146,-0.90994 -2.01562,-2.353 -2.01562,-4 0,-2.77 2.23,-5 5,-5 2.77,0 5,2.23 5,5 0,1.647 -0.79416,3.09006 -2.01563,4 0.47598,0.6287 0.76563,1.40065 0.76563,2.25 0,2.07111 -1.67893,3.75 -3.75,3.75 z m 0,-2.5 c 0.69035,0 1.25,-0.55965 1.25,-1.25 0,-0.69034 -0.55965,-1.25 -1.25,-1.25 -0.69035,0 -1.25,0.55966 -1.25,1.25 0,0.69035 0.55965,1.25 1.25,1.25 z m -0.25,-4.99999 c 0.0842,0.009 0.16343,0 0.25,0 1.385,0 2.5,-1.115 2.5,-2.50001 0,-1.385 -1.115,-2.5 -2.5,-2.5 -1.385,0 -2.5,1.115 -2.5,2.5 0,1.29845 0.9863,2.37245 2.25,2.50001 z" />
  		</g>
  
  		<!-- NINE -->
  		<path d="m 31,31 c -5.52285,0 -10,4.47715 -10,10 0,5.52285 4.47715,10 10,10 1.817,0 3.53157,-0.49674 5,-1.34375 l 0,1.34375 c 0,2.76142 -2.23858,5 -5,5 -1.95426,0 -3.6151,-1.14704 -4.4375,-2.78125 l -4.5,2.25 c 1.63927,3.28436 5.01726,5.53125 8.9375,5.53125 5.52285,0 10,-4.47715 10,-10 l 0,-10 c 0,-5.52285 -4.47715,-10 -10,-10 z m 0,5 c 2.76142,0 5,2.23858 5,5 0,2.76142 -2.23858,5 -5,5 -2.76142,0 -5,-2.23858 -5,-5 0,-2.76142 2.23858,-5 5,-5 z m -5,26 0,2 10,0 0,-2 -10,0 z"
  			id="inner-symbol-9"
  		    style="fill-opacity:1;fill-rule:evenodd;stroke:none" />
  		<g id="outer-symbol-9" style="fill:#ffffff;fill-opacity:1;fill-rule:evenodd;stroke:none">
  			<path d="m 13.5,23.5 c 2.76143,0 5,-2.23859 5,-5.00001 l 0,-4.99998 c 0,-2.76143 -2.23857,-5.00001 -5,-5.00001 -2.76142,0 -5,2.23858 -5,5.00001 0,2.76141 2.23858,4.99998 5,4.99998 0.9085,0 1.76579,-0.24837 2.5,-0.67187 l 0,0.67187 c 0,1.38071 -1.11929,2.5 -2.5,2.5 -0.97712,0 -1.80755,-0.57351 -2.21874,-1.39062 l -2.25,1.125 c 0.81962,1.64218 2.50862,2.76563 4.46874,2.76563 z m 0,-7.5 c -1.3807,0 -2.49999,-1.11928 -2.49999,-2.49999 0,-1.38071 1.11929,-2.50001 2.49999,-2.50001 1.38071,0 2.5,1.1193 2.5,2.50001 0,1.38071 -1.11929,2.49999 -2.5,2.49999 z" />
  		    <path d="m 48.5,68.5 c -2.76143,0 -5,2.23859 -5,5.00001 l 0,4.99998 c 0,2.76143 2.23857,5.00001 5,5.00001 2.76142,0 5,-2.23858 5,-5.00001 0,-2.76141 -2.23858,-4.99998 -5,-4.99998 -0.9085,0 -1.76579,0.24837 -2.5,0.67187 l 0,-0.67187 c 0,-1.38071 1.11929,-2.5 2.5,-2.5 0.97712,0 1.80755,0.57351 2.21874,1.39062 l 2.25,-1.125 c -0.81962,-1.64218 -2.50862,-2.76563 -4.46874,-2.76563 z m 0,7.5 c 1.3807,0 2.49999,1.11928 2.49999,2.49999 0,1.38071 -1.11929,2.50001 -2.49999,2.50001 -1.38071,0 -2.5,-1.1193 -2.5,-2.50001 0,-1.38071 1.11929,-2.49999 2.5,-2.49999 z" />
  		</g>
  
  		<!-- SKIP -->
  		<path d="m 31.03125,29.5 c -3.83883,-0.005 -7.69225,1.44991 -10.625,4.375 -5.8655,5.85022 -5.88143,15.35325 -0.0312,21.21875 5.85022,5.8655 15.35325,5.88143 21.21875,0.0312 5.8655,-5.85022 5.88143,-15.35325 0.0312,-21.21875 -2.92511,-2.93275 -6.75492,-4.40124 -10.59375,-4.40625 z m -0.0312,5 c 1.74988,0.002 3.50772,0.46009 5.0625,1.375 l -13.6875,13.6875 c -2.26035,-3.83781 -1.73681,-8.8655 1.5625,-12.15625 1.95517,-1.95007 4.50328,-2.90958 7.0625,-2.90625 z m 8.625,4.90625 c 2.27597,3.84073 1.74339,8.8902 -1.5625,12.1875 -3.3027,3.29409 -8.32289,3.77828 -12.15625,1.5 l 13.71875,-13.6875 z"
  			id="inner-symbol-skip"
  		    style="fill-opacity:1;fill-rule:evenodd;stroke:none" />
  		<g id="outer-symbol-skip" style="fill:#ffffff;fill-opacity:1;fill-rule:evenodd;stroke:none">
  			<path d="m 16.01558,8.5 c -1.91905,-0.003 -3.8454,0.72489 -5.3115,2.1873 -2.93219,2.92483 -2.94015,7.67591 -0.0156,10.60839 2.92456,2.93247 7.6752,2.94044 10.6074,0.0156 2.93219,-2.92483 2.94016,-7.67591 0.0156,-10.60838 -1.46229,-1.46625 -3.37682,-2.20042 -5.2959,-2.20293 z m -0.0156,2.49978 c 0.87477,9.9e-4 1.75354,0.23001 2.53078,0.68742 l -6.84247,6.84312 c -1.12998,-1.91873 -0.86825,-4.43234 0.7811,-6.07756 0.97741,-0.97495 2.25122,-1.45466 3.53059,-1.45298 z m 4.3117,2.45288 c 1.13777,1.9202 0.87153,4.4447 -0.78111,6.09319 -1.65104,1.6469 -4.16067,1.88897 -6.07699,0.74993 l 6.8581,-6.84312 z" />
  		    <path d="m 46.01558,68.5 c -1.91905,-0.003 -3.8454,0.72489 -5.3115,2.1873 -2.93219,2.92483 -2.94015,7.67591 -0.0156,10.60839 2.92456,2.93247 7.6752,2.94044 10.6074,0.0156 2.93219,-2.92483 2.94016,-7.67591 0.0156,-10.60838 -1.46229,-1.46625 -3.37682,-2.20042 -5.2959,-2.20293 z m -0.0156,2.49978 c 0.87477,9.9e-4 1.75354,0.23001 2.53078,0.68742 l -6.84247,6.84312 c -1.12998,-1.91873 -0.86825,-4.43234 0.7811,-6.07756 0.97741,-0.97495 2.25122,-1.45466 3.53059,-1.45298 z m 4.3117,2.45288 c 1.13777,1.9202 0.87153,4.4447 -0.78111,6.09319 -1.65104,1.6469 -4.16067,1.88897 -6.07699,0.74993 l 6.8581,-6.84312 z" />
  		</g>
  
  		<!-- REVERSE -->
  		<g id="inner-symbol-reverse" style="stroke:none">
  			<path d="m 31,29.75 2.5,2.5 -10,10 c -2.5,2.5 -2.5,7.5 0,10 l 5,-5 10,-10 2.5,2.5 0,-10 z" />
  	        <path d="m 31,61.25 -2.5,-2.5 10,-10 c 2.5,-2.5 2.5,-7.5 0,-10 l -5,5 -10,10 -2.5,-2.5 0,10 z" />
  	    </g>
  		<g id="outer-symbol-reverse" style="fill:#ffffff;stroke:none">
  	    	<path d="m 13.5,8.5 1.25,1.25 -5,5 c -1.25,1.25 -1.25,3.75 0,5 l 2.5,-2.5 5,-5 1.25,1.25 0,-5 z" />
  	        <path d="m 13.5,24.75 -1.25,-1.25 5,-5 c 1.25,-1.25 1.25,-3.75 0,-5 l -2.5,2.5 -5,5 -1.25,-1.25 0,5 z" />
  	        <path d="m 48.5,67.25 1.25,1.25 -5,5 c -1.25,1.25 -1.25,3.75 0,5 l 2.5,-2.5 5,-5 1.25,1.25 0,-5 z" />
  	        <path d="m 48.5,83.5 -1.25,-1.25 5,-5 c 1.25,-1.25 1.25,-3.75 0,-5 l -2.5,2.5 -5,5 -1.25,-1.25 0,5 z" />
  	    </g>
  
  	    <!-- PLUS2 -->
  	    <g id="inner-symbol-+2">
  	    	<rect width="15" height="23.40037" rx="2.5" ry="2.3477995" x="32.2469" y="40.70606"
  	        	transform="matrix(1,0,-0.27472185,0.96152374,0,0)"
  	            style="fill:#ffffff;fill-opacity:1;fill-rule:evenodd;stroke:#000000;stroke-width:0.50990587;stroke-miterlimit:4;stroke-dasharray:none" />
  			<rect width="10" height="18.200279" rx="2.4999874" ry="2.3477879" x="34.7469" y="42.66833"
              	transform="matrix(1,0,-0.27472185,0.96152374,0,0)"
  	        	style="fill-opacity:1;fill-rule:evenodd;stroke:none" />
  	        <rect width="15" height="23.40037" rx="2.5" ry="2.3477995" x="40.104" y="30.26813"
  	        	transform="matrix(1,0,-0.27472185,0.96152374,0,0)"
   	            style="fill:#ffffff;fill-opacity:1;fill-rule:evenodd;stroke:#000000;stroke-width:0.50990587;stroke-miterlimit:4;stroke-dasharray:none" />
   	        <rect width="10" height="18.200279" rx="2.4999874" ry="2.3477879" x="42.604" y="32.86823"
   	        	transform="matrix(1,0,-0.27472185,0.96152374,0,0)"
   	            style="fill-opacity:1;fill-rule:evenodd;stroke:none" />
  		</g>
  		<g id="outer-symbol-+2" style="fill:#ffffff;fill-opacity:1;fill-rule:evenodd;stroke:none">
  	        <path d="m 9.5,13.5 0,2.50002 -2.5,0 0,2.49996 2.5,0 0,2.50002 2.5,0 0,-2.50002 2.5,0 0,-2.49996 -2.5,0 0,-2.50002 -2.5,0 z" />
  	        <path d="m 21,8.5 c -2.77,0 -5,2.23 -5,5 l 0,0.5 2.5,0 0,-0.5 c 0,-1.385 1.115,-2.5 2.5,-2.5 1.385,0 2.5,1.115 2.5,2.5 0,0.56375 -0.46776,1.67007 -0.95623,2.05451 -2.6524,2.08747 -2.6244,1.74272 -6.54377,4.44549 l 0,3.5 5,0 5,0 0,-2.5 0,-1 -2.5,0 0,1 -2.5,0 -2,0 c 3.09503,-2.17937 3.32135,-2.12655 5.74654,-4.29687 0.77704,-0.69538 1.25346,-2.07553 1.25346,-3.20313 0,-2.77 -2.23,-5 -5,-5 z" />
  	        <path d="m 52.5,78.5 0,-2.5 2.5,0 0,-2.4999 -2.5,0 0,-2.5001 -2.5,0 0,2.5001 -2.5,0 0,2.4999 2.5,0 0,2.5 2.5,0 z" />
  	        <path d="m 41,83.5 c 2.77,0 5,-2.23 5,-5 l 0,-0.5 -2.5,0 0,0.5 c 0,1.385 -1.115,2.5 -2.5,2.5 -1.385,0 -2.5,-1.115 -2.5,-2.5 0,-0.5637 0.46776,-1.67 0.95623,-2.0545 2.6524,-2.0874 2.6244,-1.7427 6.54377,-4.4455 l 0,-3.5 -5,0 -5,0 0,2.5 0,1 2.5,0 0,-1 2.5,0 2,0 c -3.09503,2.1794 -3.32135,2.1266 -5.74654,4.2969 -0.77704,0.6954 -1.25346,2.0755 -1.25346,3.2031 0,2.77 2.23,5 5,5 z" />
  		</g>
       
</svg>
